# xmcd
# 
# Track frame offsets:
#     150
#     19335
#     38212
#     57637
#     87072
#     107105
#     128917
#     146172
#     158087
# 
# Disc length: 2334
# 
# Revision: 11
# Processed by: cddbd v1.5.2PL0 Copyright (c) Steve Scherf et al.
# Submitted via: fre:ac v1.0.31
# 
DISCID=7b091c09
DTITLE=Al Jarreau - Jarreau
DYEAR=1983
DGENRE=Jazz
TTITLE0=Mornin'
TTITLE1=Boogie Down
TTITLE2=I Will Be Here For You (Nitakungodea Milele)
TTITLE3=Save Me
TTITLE4=Step By Step
TTITLE5=Black And Blues
TTITLE6=Trouble In Paradise
TTITLE7=Not Like This
TTITLE8=Love Is Waiting
EXTD=YEAR: 1983
EXTT0=
EXTT1=
EXTT2=
EXTT3=
EXTT4=
EXTT5=
EXTT6=
EXTT7=
EXTT8=
PLAYORDER=
